<?xml version="1.0" encoding="UTF-8" standalone="no"?>
<!-- Created with Inkscape (http://www.inkscape.org/) -->

<svg
   xmlns:dc="http://purl.org/dc/elements/1.1/"
   xmlns:cc="http://creativecommons.org/ns#"
   xmlns:rdf="http://www.w3.org/1999/02/22-rdf-syntax-ns#"
   xmlns:svg="http://www.w3.org/2000/svg"
   xmlns="http://www.w3.org/2000/svg"
   xmlns:sodipodi="http://sodipodi.sourceforge.net/DTD/sodipodi-0.dtd"
   xmlns:inkscape="http://www.inkscape.org/namespaces/inkscape"
   width="32"
   height="32"
   id="svg4700"
   version="1.1"
   inkscape:version="0.91 r13725"
   viewBox="0 0 32 32"
   sodipodi:docname="remcall.svg"
   inkscape:export-filename="/home/luphord/repos/remcall/favicon.png"
   inkscape:export-xdpi="90"
   inkscape:export-ydpi="90">
  <defs
     id="defs4702" />
  <sodipodi:namedview
     id="base"
     pagecolor="#ffffff"
     bordercolor="#666666"
     borderopacity="1.0"
     inkscape:pageopacity="0.0"
     inkscape:pageshadow="2"
     inkscape:zoom="11.197802"
     inkscape:cx="0.90775243"
     inkscape:cy="1.7114816"
     inkscape:current-layer="layer1"
     showgrid="true"
     inkscape:grid-bbox="true"
     inkscape:document-units="px"
     inkscape:window-width="1920"
     inkscape:window-height="1023"
     inkscape:window-x="0"
     inkscape:window-y="0"
     inkscape:window-maximized="1" />
  <metadata
     id="metadata4705">
    <rdf:RDF>
      <cc:Work
         rdf:about="">
        <dc:format>image/svg+xml</dc:format>
        <dc:type
           rdf:resource="http://purl.org/dc/dcmitype/StillImage" />
        <dc:title></dc:title>
      </cc:Work>
    </rdf:RDF>
  </metadata>
  <g
     id="layer1"
     inkscape:label="Layer 1"
     inkscape:groupmode="layer">
    <path
       style="opacity:1;fill:#000000;fill-opacity:1;stroke:none;stroke-width:0.25099999;stroke-miterlimit:4;stroke-dasharray:none;stroke-opacity:1"
       d="M 12.875786,3.5181551 A 9.9022766,12.012349 77.100059 0 0 11.27813,3.9947174 9.9022766,12.012349 77.100059 0 0 4.0750046,17.26859 9.9022766,12.012349 77.100059 0 0 6.1863327,20.163795 l -3.5976562,2.406103 5.8046875,2.359521 5.804687,2.35952 -0.673828,-5.790411 -0.675781,-5.792203 -4.1074218,2.750087 A 9.9022766,12.012349 77.100059 0 1 7.1882859,16.114808 9.9022766,12.012349 77.100059 0 1 12.875786,3.5181551 Z"
       id="path5267"
       inkscape:connector-curvature="0" />
    <path
       inkscape:connector-curvature="0"
       id="path5278"
       d="m 18.007454,26.903424 a 9.9022766,12.012349 76.305697 0 0 1.590896,-0.498666 9.9022766,12.012349 76.305697 0 0 7.018407,-13.37246 9.9022766,12.012349 76.305697 0 0 -2.151264,-2.865656 l 3.563952,-2.4557483 -5.836842,-2.2788193 -5.83684,-2.2788183 0.754041,5.7805127 0.756018,5.7822772 4.068899,-2.806767 a 9.9022766,12.012349 76.305697 0 1 1.58505,2.319852 9.9022766,12.012349 76.305697 0 1 -5.512317,12.674293 z"
       style="opacity:1;fill:#000000;fill-opacity:1;stroke:none;stroke-width:0.25099999;stroke-miterlimit:4;stroke-dasharray:none;stroke-opacity:1" />
  </g>
</svg>
